<svg xmlns="http://www.w3.org/2000/svg" viewBox="0 0 1536 1536"><defs><style>.cls-1{fill:#02c39a;}.cls-2{fill:#f2f2f2;}</style></defs><title>onb 03</title><g id="Layer_2" data-name="Layer 2"><g id="Layer_1-2" data-name="Layer 1"><rect class="cls-1" width="1536" height="1536"/><path class="cls-2" d="M1294.9,348.2H898.3V216a54,54,0,0,0-54-54H226.2c-29.8,0-54,22.3-54,52.1V688.9a54,54,0,0,0,54,54H490.6L313.7,919.7a18.46,18.46,0,0,0,26.1,26.1L516.7,768.9v121c0,11.2,7.4,18.6,18.6,18.6s18.6-7.4,18.6-18.6v-121L730.8,945.8a18.46,18.46,0,0,0,26.1-26.1L580,742.9H844.4a54,54,0,0,0,54-54v-203h42.8v620c0,39.1,27.9,70.7,65.2,72.6h3.7c37.2,0,68.9-31.7,68.9-68.9V862c0-11.2,9.3-22.3,22.3-22.3s22.3,9.3,22.3,22.3v243.9c0,39.1,27.9,70.7,65.2,72.6h3.7c37.2,0,68.9-31.7,68.9-68.9V782c9.3,5.6,20.5,7.4,31.7,7.4a68.77,68.77,0,0,0,68.9-68.9V417C1363.8,377.9,1332.1,348.2,1294.9,348.2ZM861.1,688.9a16.71,16.71,0,0,1-16.8,16.8H226.2a16.71,16.71,0,0,1-16.8-16.8V214.1a16.71,16.71,0,0,1,16.8-16.8h620A16.71,16.71,0,0,1,863,214.1V346.3H777.4c-37.2,0-68.9,31.7-68.9,68.9a68.77,68.77,0,0,0,68.9,68.9h83.8V688.9Zm465.4,31.6c0,16.8-14.9,31.7-31.7,31.7s-31.7-14.9-31.7-31.7h0V458c0-11.2-7.4-18.6-18.6-18.6s-18.6,7.4-18.6,18.6V720.5h0v387.3c0,16.8-14.9,31.7-31.7,31.7h-1.9c-16.8,0-29.8-16.8-29.8-35.4V862c0-31.7-26.1-59.6-59.6-59.6-31.7,0-59.6,26.1-59.6,59.6v245.8c0,16.8-14.9,31.7-31.7,31.7h-1.9c-16.8,0-29.8-16.8-29.8-35.4V467.3c0-11.2-7.4-18.6-18.6-18.6H779.2c-16.8,0-31.7-14.9-31.7-31.7s14.9-31.7,31.7-31.7h517.6a31.45,31.45,0,0,1,31.7,31.7V720.5Z"/><path class="cls-2" d="M1101.3,309.1c70.7,0,128.5-57.7,128.5-128.5S1172,52.1,1101.3,52.1,972.8,109.8,972.8,180.6,1030.5,309.1,1101.3,309.1Zm0-219.7a91.2,91.2,0,1,1-91.2,91.2A91.35,91.35,0,0,1,1101.3,89.4Z"/><rect class="cls-2" x="1082.6" y="463.6" width="37.2" height="35.4"/><rect class="cls-2" x="1082.6" y="567.9" width="37.2" height="35.4"/><rect class="cls-2" x="1082.6" y="674" width="37.2" height="35.4"/><path class="cls-2" d="M606,249.5A74.69,74.69,0,0,0,531.5,324c0,18.6,7.4,35.4,18.6,48.4L453.4,512c-7.4-3.7-16.8-5.6-26.1-5.6a35.61,35.61,0,0,0-13,1.9l-35.4-81.9a72.15,72.15,0,0,0,27.9-57.7,74.5,74.5,0,1,0-74.5,74.5,35.61,35.61,0,0,0,13-1.9l35.4,81.9a72.15,72.15,0,0,0-27.9,57.7,74.5,74.5,0,0,0,149,0c0-18.6-7.4-35.4-18.6-48.4L580,392.8c7.4,3.7,16.8,5.6,26.1,5.6a74.69,74.69,0,0,0,74.5-74.5C680.6,282.9,647,249.5,606,249.5ZM295.1,368.6a37.2,37.2,0,1,1,37.2,37.2A37.32,37.32,0,0,1,295.1,368.6ZM427.3,618.1a37.2,37.2,0,1,1,37.2-37.2A37.32,37.32,0,0,1,427.3,618.1ZM606,361.2A37.2,37.2,0,1,1,643.2,324,37.32,37.32,0,0,1,606,361.2Z"/></g></g></svg>