<svg xmlns="http://www.w3.org/2000/svg" viewBox="0 0 1536.1 1536"><defs><style>.cls-1{fill:#02c39a;}.cls-2{fill:#f2f2f2;}</style></defs><title>onb 02</title><g id="Layer_2" data-name="Layer 2"><g id="Layer_1-2" data-name="Layer 1"><rect class="cls-1" x="0.1" width="1536" height="1536"/><polygon class="cls-2" points="1028.8 1051.5 886.2 1443.4 856.5 1432.6 995.2 1051.5 1028.8 1051.5"/><polygon class="cls-2" points="836.6 1051.5 697.9 1432.6 727.6 1443.4 870.2 1051.5 836.6 1051.5"/><polygon class="cls-2" points="678 1051.5 539.3 1432.6 569 1443.4 711.6 1051.5 678 1051.5"/><polygon class="cls-2" points="519.4 1051.5 380.7 1432.6 410.4 1443.4 553 1051.5 519.4 1051.5"/><polygon class="cls-2" points="1153.7 1051.5 1015.1 1432.6 1044.8 1443.4 1187.4 1051.5 1153.7 1051.5"/><polygon class="cls-2" points="360.8 1051.5 222.1 1432.6 251.8 1443.4 394.4 1051.5 360.8 1051.5"/><path class="cls-2" d="M1248,380.6c-35.9,0-70,7.4-101.6,19.4C1119,226.1,969.7,92.6,788.1,92.6,587,92.6,424,255.5,424,456.6c0,4.5,1.2,8.8,1.4,13.3-4.5-.3-8.9-1.3-13.4-1.3-108.2,0-196,87.8-196,196,0,1.3.4,2.6.4,3.9-15.5-4.6-31.5-8-48.4-8-92.8,0-168,75.3-168,168s75.2,128,168,128H1247.9c159.1,0,288.1-128.9,288.1-288S1407.1,380.6,1248,380.6Z"/></g></g></svg>