<svg xmlns="http://www.w3.org/2000/svg" viewBox="0 0 1536 1536"><defs><style>.cls-1{fill:#02c39a;}.cls-2{fill:#f2f2f2;}</style></defs><title>onb 01</title><g id="Layer_2" data-name="Layer 2"><g id="Layer_1-2" data-name="Layer 1"><rect class="cls-1" width="1536" height="1536"/><path class="cls-2" d="M466.9,48.2a28.3,28.3,0,1,0-56.6,0v62.7h57.8V48.2ZM438.7,420.5c77.4,0,141.3-62.7,141.3-141.3,0-77.4-62.7-141.3-141.3-141.3-77.4,0-141.3,62.7-141.3,141.3S360,420.5,438.7,420.5ZM631.6,142.8A28.71,28.71,0,1,0,591,102.2l-44.2,45.5,40.6,40.6ZM546.8,411.9,591,456.1a28.71,28.71,0,1,0,40.6-40.6l-44.2-44.2Zm59-103.2h62.7a28.3,28.3,0,0,0,0-56.6H605.8Zm-317-120.5,40.6-40.6-44.2-44.2A28.71,28.71,0,1,0,244.6,144ZM409.2,511.4a28.3,28.3,0,0,0,56.6,0V448.7H408v62.7ZM206.4,308.7h62.7V250.9H206.4a27.84,27.84,0,0,0-28.3,28.3C178.2,295.1,190.5,308.7,206.4,308.7Zm38.1,106.9a28.71,28.71,0,0,0,40.6,40.6L329.3,412l-40.6-40.6Zm946.2,742.2c-127.8,0-167.1-73.7-275.3-73.7-12.3,0-25.8,1.2-39.3,2.5l141.3-360c19.7-2.5,43,1.2,67.6,11.1,35.6,13.5,61.4,35.6,70,56.5,2.5,7.4,11.1,9.8,18.4,7.4,20.9-9.8,55.3-8.6,89.7,4.9,25.8,9.8,47.9,24.6,60.2,40.6,7.4,8.6,22.1,6.1,24.6-4.9,45.5-183.1-51.6-376-232.2-446.1-183.1-71.3-384.6,7.4-473.1,174.5-4.9,9.8,3.7,22.1,14.7,20.9,19.7-3.7,45.5,0,71.3,9.8,34.4,13.5,60.2,35.6,68.8,56.5,2.5,7.4,11.1,9.8,18.4,7.4,20.9-9.8,55.3-8.6,89.7,4.9,24.6,9.8,45.5,23.3,57.8,38.1L809.7,1097.7c-24.6,4.9-49.2,11.1-77.4,17.2v-94.6c0-13.5-4.9-25.8-14.7-34.4l43-43c9.8-9.8,9.8-24.6,0-34.4s-24.6-9.8-34.4,0L593.5,1043.7H383.4a63,63,0,0,0-62.7,62.7v47.9c-89.7,11.1-142.5,30.7-142.5,52.8H1357.8C1357.8,1206.9,1318.5,1157.8,1190.7,1157.8ZM952.3,614.6c-2.5,4.9-6.1,7.4-11.1,7.4a9.37,9.37,0,0,1-4.9-1.2c-6.1-2.5-9.8-9.8-7.4-16,1.2-4.9,36.9-97.1,129-140.1-154.8-20.9-249.4,86-253.1,90.9a13.75,13.75,0,0,1-9.8,3.7,21.63,21.63,0,0,1-8.6-2.5c-4.9-4.9-6.1-12.3-1.2-17.2,1.2-1.2,125.3-142.5,320.7-89.7h0a1.18,1.18,0,0,1,1.2,1.2h1.2C1284,558,1260.7,746,1260.7,747.2c-1.2,6.1-6.1,11.1-12.3,11.1h-1.2a14.48,14.48,0,0,1-11.1-13.5c1.2-6.1,17.2-147.5-103.2-247,30.7,97.1-16,186.8-18.4,191.7a12.85,12.85,0,0,1-11.1,6.1c-2.5,0-3.7,0-6.1-1.2-6.1-3.7-8.6-11.1-4.9-17.2,0-1.2,54.1-104.4,4.9-201.5C992.9,507.7,952.3,613.4,952.3,614.6ZM684.4,1125.8c-55.3,11.1-116.7,19.7-188,19.7-46.7,0-88.5,1.2-126.6,4.9v-43a13.57,13.57,0,0,1,13.5-13.5H613.1l7.4-7.4h0l63.9-63.9v103.2Z"/></g></g></svg>